<svg width="15" height="15" viewBox="0 0 15 15" fill="none" xmlns="http://www.w3.org/2000/svg">
<path d="M13.9881 13.2022L10.1181 9.3322C10.8191 8.4032 11.2401 7.2512 11.2401 6.0002C11.2401 2.9402 8.75114 0.450195 5.69014 0.450195C2.63014 0.450195 0.140137 2.9402 0.140137 6.0002C0.140137 9.0612 2.63014 11.5502 5.69014 11.5502C6.94114 11.5502 8.09314 11.1292 9.02214 10.4282L12.8921 14.2982C13.0431 14.4492 13.2421 14.5262 13.4401 14.5262C13.6381 14.5262 13.8361 14.4502 13.9881 14.2982C14.2911 13.9952 14.2911 13.5052 13.9881 13.2022ZM1.24014 6.0002C1.24014 3.5462 3.23714 1.5502 5.69014 1.5502C8.14414 1.5502 10.1401 3.5472 10.1401 6.0002C10.1401 8.4532 8.14414 10.4502 5.69014 10.4502C3.23614 10.4502 1.24014 8.4542 1.24014 6.0002Z" fill="white" fill-opacity="0.8"/>
</svg>
